<svg width="367" height="50" viewBox="0 0 367 50" fill="none" xmlns="http://www.w3.org/2000/svg">
<path d="M56.375 1.96875V13.5625C54.5417 13.5625 53.3333 13.8646 52.75 14.4688C52.1875 15.0729 51.9062 15.9479 51.9062 17.0938V48H33.125L16.8125 22.4688V33.2812C16.8125 34.6354 17.2083 35.5 18 35.875C18.7917 36.2292 20.1042 36.4062 21.9375 36.4062V48H0.4375V36.4062C2.27083 36.4062 3.58333 36.1667 4.375 35.6875C5.16667 35.1875 5.5625 34.2604 5.5625 32.9062V17.0938C5.5625 15.7188 5.16667 14.7917 4.375 14.3125C3.58333 13.8125 2.27083 13.5625 0.4375 13.5625V1.96875H25L40.625 26.4375V17.0938C40.625 15.7188 40.3333 14.7917 39.75 14.3125C39.1875 13.8125 37.9896 13.5625 36.1562 13.5625V1.96875H56.375ZM58.625 25.0312C58.625 21.0104 59.2812 17.4896 60.5938 14.4688C61.9271 11.4271 63.8021 8.88542 66.2188 6.84375C68.6354 4.80208 71.5 3.27083 74.8125 2.25C78.1458 1.22917 81.8229 0.71875 85.8438 0.71875C89.8438 0.71875 93.5104 1.22917 96.8438 2.25C100.177 3.27083 103.042 4.80208 105.438 6.84375C107.854 8.88542 109.719 11.4271 111.031 14.4688C112.365 17.4896 113.031 21.0104 113.031 25.0312C113.031 29.0312 112.365 32.5521 111.031 35.5938C109.719 38.6146 107.854 41.1562 105.438 43.2188C103.042 45.2604 100.177 46.7917 96.8438 47.8125C93.5104 48.8333 89.8438 49.3438 85.8438 49.3438C81.8229 49.3438 78.1458 48.8333 74.8125 47.8125C71.5 46.7917 68.6354 45.2604 66.2188 43.2188C63.8021 41.1562 61.9271 38.6146 60.5938 35.5938C59.2812 32.5521 58.625 29.0312 58.625 25.0312ZM79.625 25.0312C79.625 27.5521 79.7188 29.6667 79.9062 31.375C80.0938 33.0625 80.4167 34.4375 80.875 35.5C81.3542 36.5417 81.9896 37.3021 82.7812 37.7812C83.5729 38.2396 84.5938 38.4688 85.8438 38.4688C87.0312 38.4688 88.0312 38.2396 88.8438 37.7812C89.6562 37.3021 90.2917 36.5417 90.75 35.5C91.2292 34.4375 91.5625 33.0625 91.75 31.375C91.9375 29.6667 92.0312 27.5521 92.0312 25.0312C92.0312 22.5521 91.9375 20.4479 91.75 18.7188C91.5625 16.9896 91.2292 15.6042 90.75 14.5625C90.2917 13.5208 89.6562 12.7708 88.8438 12.3125C88.0312 11.8333 87.0312 11.5938 85.8438 11.5938C84.5938 11.5938 83.5729 11.8333 82.7812 12.3125C81.9896 12.7708 81.3542 13.5208 80.875 14.5625C80.4167 15.6042 80.0938 16.9896 79.9062 18.7188C79.7188 20.4479 79.625 22.5521 79.625 25.0312ZM158.688 31.0312V32.9062C158.688 34.0104 158.958 34.875 159.5 35.5C160.062 36.1042 161.073 36.4062 162.531 36.4062H165.719V48H135.125V36.4062C136.958 36.4062 138.271 36.1667 139.062 35.6875C139.854 35.1875 140.25 34.2604 140.25 32.9062V17.0938C140.25 15.7188 139.854 14.7917 139.062 14.3125C138.271 13.8125 136.958 13.5625 135.125 13.5625V1.96875H168.844C171.927 1.96875 174.51 2.33333 176.594 3.0625C178.677 3.79167 180.344 4.8125 181.594 6.125C182.865 7.41667 183.76 8.98958 184.281 10.8438C184.823 12.6979 185.094 14.7396 185.094 16.9688C185.094 19.2188 184.823 21.2083 184.281 22.9375C183.76 24.6667 182.865 26.1458 181.594 27.375C180.344 28.5833 178.677 29.5 176.594 30.125C174.51 30.7292 171.927 31.0312 168.844 31.0312H158.688ZM158.688 23.625H162.062C163.812 23.625 165.021 23.1667 165.688 22.25C166.354 21.3333 166.688 20.125 166.688 18.625C166.688 17.2083 166.354 16.0104 165.688 15.0312C165.021 14.0521 163.812 13.5625 162.062 13.5625H158.688V23.625ZM186.75 30.7188C186.75 27.6562 187.281 24.9688 188.344 22.6562C189.406 20.3438 190.917 18.4167 192.875 16.875C194.854 15.3125 197.229 14.1354 200 13.3438C202.771 12.5521 205.865 12.1562 209.281 12.1562C212.698 12.1562 215.792 12.5521 218.562 13.3438C221.333 14.1354 223.698 15.3125 225.656 16.875C227.615 18.4167 229.125 20.3438 230.188 22.6562C231.271 24.9688 231.812 27.6562 231.812 30.7188C231.812 33.7396 231.271 36.4167 230.188 38.75C229.125 41.0833 227.615 43.0417 225.656 44.625C223.698 46.1875 221.333 47.3646 218.562 48.1562C215.792 48.9479 212.698 49.3438 209.281 49.3438C205.865 49.3438 202.771 48.9479 200 48.1562C197.229 47.3646 194.854 46.1875 192.875 44.625C190.917 43.0417 189.406 41.0833 188.344 38.75C187.281 36.4167 186.75 33.7396 186.75 30.7188ZM204.531 30.7188C204.531 32.4688 204.604 33.9583 204.75 35.1875C204.917 36.3958 205.177 37.375 205.531 38.125C205.885 38.8542 206.365 39.3958 206.969 39.75C207.573 40.0833 208.344 40.25 209.281 40.25C210.219 40.25 210.979 40.0833 211.562 39.75C212.167 39.3958 212.646 38.8542 213 38.125C213.375 37.375 213.635 36.3958 213.781 35.1875C213.927 33.9583 214 32.4688 214 30.7188C214 27.2188 213.667 24.7708 213 23.375C212.354 21.9583 211.115 21.25 209.281 21.25C208.344 21.25 207.573 21.4167 206.969 21.75C206.365 22.0625 205.885 22.5938 205.531 23.3438C205.177 24.0729 204.917 25.0521 204.75 26.2812C204.604 27.4896 204.531 28.9688 204.531 30.7188ZM264.469 28.0312C264.469 27.2188 264.365 26.5729 264.156 26.0938C263.969 25.5938 263.719 25.2188 263.406 24.9688C263.115 24.6979 262.781 24.5208 262.406 24.4375C262.031 24.3542 261.667 24.3125 261.312 24.3125C259.958 24.3125 258.948 24.7083 258.281 25.5C257.615 26.2917 257.281 27.4167 257.281 28.875V33.3438C257.281 34.4479 257.469 35.2396 257.844 35.7188C258.24 36.1771 258.99 36.4062 260.094 36.4062H261.781V48H235.656V36.4062H237.5C238.354 36.4062 239 36.1354 239.438 35.5938C239.896 35.0312 240.125 34.3646 240.125 33.5938V27.6562C240.125 26.6771 239.833 26.0208 239.25 25.6875C238.688 25.3333 238.042 25.1562 237.312 25.1562H235.656V13.5625H254.219L253.562 22.1562H254.094C254.552 18.9479 255.958 16.4792 258.312 14.75C260.667 13.0208 263.865 12.1562 267.906 12.1562C270.76 12.1562 273.083 12.5625 274.875 13.375C276.667 14.1875 278.052 15.2188 279.031 16.4688C280.031 17.6979 280.708 19.0417 281.062 20.5C281.417 21.9375 281.594 23.2917 281.594 24.5625V33.3438C281.594 34.4479 281.781 35.2396 282.156 35.7188C282.552 36.1771 283.302 36.4062 284.406 36.4062H286.094V48H264.469V28.0312ZM309.875 1.96875V13.5625H319.219V25.1562H309.875V34.75C309.875 36.125 310.062 37.25 310.438 38.125C310.833 39 311.635 39.4375 312.844 39.4375C313.51 39.4375 314.042 39.3125 314.438 39.0625C314.854 38.7917 315.177 38.4479 315.406 38.0312C315.656 37.5938 315.812 37.1042 315.875 36.5625C315.938 36 315.969 35.3958 315.969 34.75V30.0938H319.562V35.125C319.562 37.1458 319.344 39.0312 318.906 40.7812C318.49 42.5312 317.76 44.0417 316.719 45.3125C315.698 46.5833 314.302 47.5938 312.531 48.3438C310.76 49.0938 308.531 49.4688 305.844 49.4688C302.865 49.4688 300.49 49.1042 298.719 48.375C296.948 47.6458 295.604 46.6458 294.688 45.375C293.771 44.1042 293.167 42.5938 292.875 40.8438C292.604 39.0938 292.469 37.1875 292.469 35.125V25.1562H287.562V14.8438C289.125 14.8438 290.573 14.5104 291.906 13.8438C293.26 13.1562 294.417 12.2188 295.375 11.0312C296.354 9.82292 297.104 8.44792 297.625 6.90625C298.167 5.36458 298.438 3.71875 298.438 1.96875H309.875ZM321.5 30.7188C321.5 27.6562 322.031 24.9688 323.094 22.6562C324.156 20.3438 325.667 18.4167 327.625 16.875C329.604 15.3125 331.979 14.1354 334.75 13.3438C337.521 12.5521 340.615 12.1562 344.031 12.1562C347.448 12.1562 350.542 12.5521 353.312 13.3438C356.083 14.1354 358.448 15.3125 360.406 16.875C362.365 18.4167 363.875 20.3438 364.938 22.6562C366.021 24.9688 366.562 27.6562 366.562 30.7188C366.562 33.7396 366.021 36.4167 364.938 38.75C363.875 41.0833 362.365 43.0417 360.406 44.625C358.448 46.1875 356.083 47.3646 353.312 48.1562C350.542 48.9479 347.448 49.3438 344.031 49.3438C340.615 49.3438 337.521 48.9479 334.75 48.1562C331.979 47.3646 329.604 46.1875 327.625 44.625C325.667 43.0417 324.156 41.0833 323.094 38.75C322.031 36.4167 321.5 33.7396 321.5 30.7188ZM339.281 30.7188C339.281 32.4688 339.354 33.9583 339.5 35.1875C339.667 36.3958 339.927 37.375 340.281 38.125C340.635 38.8542 341.115 39.3958 341.719 39.75C342.323 40.0833 343.094 40.25 344.031 40.25C344.969 40.25 345.729 40.0833 346.312 39.75C346.917 39.3958 347.396 38.8542 347.75 38.125C348.125 37.375 348.385 36.3958 348.531 35.1875C348.677 33.9583 348.75 32.4688 348.75 30.7188C348.75 27.2188 348.417 24.7708 347.75 23.375C347.104 21.9583 345.865 21.25 344.031 21.25C343.094 21.25 342.323 21.4167 341.719 21.75C341.115 22.0625 340.635 22.5938 340.281 23.3438C339.927 24.0729 339.667 25.0521 339.5 26.2812C339.354 27.4896 339.281 28.9688 339.281 30.7188Z" fill="#296647"/>
</svg>
